Patient4_TMGait_0pt8_01_left_47_GRF.mot
version=1
nRows=78
nColumns=19
inDegrees=no
endheader
time	F1x	F1y	F1z	M1x	M1y	M1z	F2x	F2y	F2z	M2x	M2y	M2z	EC1x	EC1y	EC1z	EC2x	EC2y	EC2z
52.34	9.7436	17.7239	-9.0362	-3.007	8.8484	24.6325	-41.7921	690.4553	-60.0606	250.3556	82.1469	793.5441	-0.0592	0.0182	-0.0073	-0.0462	0.0165	0.9585
52.3511	6.2704	12.8671	-5.9565	-2.3294	5.7128	17.8251	-35.7	694.4636	-60.7981	250.8875	81.1848	791.5347	-0.0592	0.0182	-0.0073	-0.0462	0.0165	0.9585
52.3621	3.4238	8.8029	-3.3961	-1.7747	3.117	12.098	-29.9825	698.1702	-61.2275	251.5435	79.8401	788.9293	-0.0592	0.0182	-0.0073	-0.0462	0.0165	0.9585
52.3732	1.3334	5.7365	-1.4584	-1.3673	1.1669	7.7631	-24.7953	701.8463	-61.3796	252.4645	78.1834	786.2338	-0.0592	0.0182	-0.0073	-0.0462	0.0165	0.9585
52.3843	-0.07161	3.6666	-0.15265	-1.1076	-0.14171	4.8206	-20.1038	705.9398	-61.302	253.7984	76.2694	784.012	-0.0592	0.0182	-0.0073	-0.0462	0.0165	0.9585
52.3954	-0.9065	2.4204	0.65661	-0.96524	-0.94919	3.0392	-15.7474	710.7587	-61.1181	255.6113	74.2032	782.6011	-0.0592	0.0182	-0.0073	-0.0462	0.0165	0.9585
52.4064	-1.3413	1.7858	1.0814	-0.90718	-1.3816	2.1203	-11.5394	716.403	-60.9125	257.8765	72.046	782.0651	-0.0592	0.0182	-0.0073	-0.0462	0.0165	0.9585
52.4175	-1.5269	1.5351	1.2658	-0.8902	-1.5905	1.7516	-7.2738	722.6459	-60.7857	260.4552	69.8663	782.0965	-0.0592	0.0182	-0.0073	-0.0462	0.0165	0.9585
52.4286	-1.5767	1.4295	1.3108	-0.86612	-1.68	1.6125	-2.7724	729.0818	-60.8085	263.1499	67.7007	782.2201	-0.0592	0.0182	-0.0073	-0.0462	0.0165	0.9585
52.4396	-1.6058	1.2754	1.2944	-0.79134	-1.7395	1.4311	2.0949	735.2047	-61.0032	265.7394	65.5437	781.8744	-0.0592	0.0182	-0.0073	-0.0462	0.0165	0.9585
52.4507	-1.6398	0.86728	1.2767	-0.6128	-1.82	0.92646	7.3549	740.5849	-61.3777	268.0393	63.3954	780.6329	-0.0592	0.0182	-0.0073	-0.0462	0.0165	0.9585
52.4618	-1.728	0.063419	1.2689	-0.28772	-1.9281	-0.081843	12.9645	744.9686	-61.8933	269.9375	61.2354	778.2737	-0.0592	0.0182	-0.0073	-0.0462	0.0165	0.9585
52.4729	-1.8258	-1.2774	1.284	0.22853	-2.0468	-1.7724	18.7411	748.2425	-62.5313	271.3818	59.1059	774.7631	-0.0592	0.0182	-0.0073	-0.0462	0.0165	0.9585
52.4839	-1.8827	-3.1828	1.272	0.94734	-2.0971	-4.1618	24.4706	750.4522	-63.247	272.3776	57.044	770.2721	-0.0592	0.0182	-0.0073	-0.0462	0.0165	0.9585
52.495	-1.7772	-5.5921	1.1971	1.8437	-1.9871	-7.1978	29.8588	751.6202	-64.0218	272.9219	55.1382	764.974	-0.0592	0.0182	-0.0073	-0.0462	0.0165	0.9585
52.5061	-1.3696	-8.2281	0.98751	2.8143	-1.5772	-10.512	34.6453	751.6556	-64.8374	272.967	53.4721	758.8922	-0.0592	0.0182	-0.0073	-0.0462	0.0165	0.9585
52.5171	-0.44423	-10.5765	0.56907	3.6605	-0.69857	-13.4832	38.597	750.2676	-65.683	272.3953	52.1293	751.8513	-0.0592	0.0182	-0.0073	-0.0462	0.0165	0.9585
52.5282	1.1723	-11.7241	-0.14695	4.0413	0.82447	-14.934	41.565	747.0007	-66.5521	271.0366	51.1654	743.488	-0.0592	0.0182	-0.0073	-0.0462	0.0165	0.9585
52.5393	3.7137	-10.3346	-1.2484	3.4572	3.1794	-13.199	43.5229	741.4182	-67.4115	268.731	50.571	733.4331	-0.0592	0.0182	-0.0073	-0.0462	0.0165	0.9585
52.5504	7.2556	-4.5481	-2.7889	1.22	6.4627	-5.9334	44.5695	733.1851	-68.2274	265.3694	50.2925	721.3665	-0.0592	0.0182	-0.0073	-0.0462	0.0165	0.9585
52.5614	11.7938	7.8916	-4.752	-3.5096	10.6439	9.6772	44.8808	722.2428	-68.919	260.947	50.2075	707.2088	-0.0592	0.0182	-0.0073	-0.0462	0.0165	0.9585
52.5725	16.9463	29.4763	-7.0013	-11.6456	15.4036	36.7844	44.6798	708.6686	-69.3946	255.5239	50.1663	690.977	-0.0592	0.0182	-0.0073	-0.0462	0.0165	0.9585
52.5836	21.9351	62.4025	-9.1862	-23.9806	19.9959	78.1574	44.2152	692.6859	-69.5008	249.2174	49.9529	672.8319	-0.0592	0.0182	-0.0073	-0.0462	0.0165	0.9585
52.5946	25.274	107.8532	-10.6973	-40.9052	23.0848	135.3586	43.7277	674.441	-69.0643	242.1226	49.3337	652.8304	-0.0592	0.0182	-0.0073	-0.0462	0.0165	0.9585
52.6057	24.8019	165.128	-10.6284	-62.0952	22.7522	207.5682	43.375	653.8513	-67.8942	234.2521	48.0828	630.8358	-0.0592	0.0182	-0.0073	-0.0462	0.0165	0.9585
52.6168	18.7834	231.5602	-8.0238	-86.4722	17.1657	291.5367	43.2496	630.4835	-65.8151	225.4844	46.0048	606.3896	-0.0592	0.0182	-0.0073	-0.0462	0.0165	0.9585
52.6279	7.5246	302.6305	-1.939	-112.2702	5.3021	381.5134	43.3145	603.4819	-62.6952	215.5366	42.9846	578.6536	-0.0592	0.0182	-0.0073	-0.0462	0.0165	0.9585
52.6389	-7.1052	372.3366	7.8958	-137.2584	-12.399	469.6751	43.48	571.6793	-58.5285	203.9999	39.0408	546.5099	-0.0592	0.0182	-0.0073	-0.0462	0.0165	0.9585
52.65	-22.7493	435.5856	20.4841	-159.6576	-33.7467	549.1139	43.508	533.9621	-53.44	190.4661	34.3594	508.9403	-0.0592	0.0182	-0.0073	-0.0462	0.0165	0.9585
52.6611	-37.5831	491.1455	34.0132	-179.1253	-55.7776	617.9	43.059	489.7119	-47.6074	174.6912	29.2073	465.4182	-0.0592	0.0182	-0.0073	-0.0462	0.0165	0.9585
52.6721	-50.7031	540.8184	46.6166	-196.438	-75.8585	678.1531	41.7464	439.1418	-41.292	156.7172	23.9401	416.2306	-0.0592	0.0182	-0.0073	-0.0462	0.0165	0.9585
52.6832	-61.3725	586.8736	57.1193	-212.5155	-92.2973	732.6915	39.2236	383.2984	-34.7543	136.8869	18.8931	362.415	-0.0592	0.0182	-0.0073	-0.0462	0.0165	0.9585
52.6943	-69.0849	630.1398	64.8546	-227.7243	-104.1209	782.643	35.2993	324.0243	-28.2928	115.8248	14.3858	305.7458	-0.0592	0.0182	-0.0073	-0.0462	0.0165	0.9585
52.7054	-73.3782	669.8053	69.7889	-241.7793	-111.1816	826.9975	30.0054	263.8098	-22.18	94.3968	10.6444	248.5687	-0.0592	0.0182	-0.0073	-0.0462	0.0165	0.9585
52.7164	-74.1602	704.2602	72.6563	-254.0368	-114.3489	863.9263	23.6668	205.578	-16.6938	73.6314	7.7998	193.5898	-0.0592	0.0182	-0.0073	-0.0462	0.0165	0.9585
52.7275	-71.6109	732.1007	74.1985	-263.9124	-114.6566	891.8314	16.9512	152.2489	-12.0391	54.5696	5.8044	143.4525	-0.0592	0.0182	-0.0073	-0.0462	0.0165	0.9585
52.7386	-66.3398	752.6734	75.1844	-271.0888	-113.2678	910.2437	10.6777	106.1325	-8.2785	38.0521	4.436	100.217	-0.0592	0.0182	-0.0073	-0.0462	0.0165	0.9585
52.7496	-59.1038	766.0827	76.0079	-275.5606	-110.9746	919.5954	5.5469	68.5549	-5.3576	24.5712	3.4227	65.0368	-0.0592	0.0182	-0.0073	-0.0462	0.0165	0.9585
52.7607	-50.8313	772.9714	76.9029	-277.5346	-108.3987	920.9989	1.8496	39.8028	-3.1466	14.2501	2.5624	38.1204	-0.0592	0.0182	-0.0073	-0.0462	0.0165	0.9585
52.7718	-42.2994	774.2553	77.9235	-277.356	-105.8876	915.8065	-0.45023	19.3893	-1.5582	6.9221	1.8027	19.0004	-0.0592	0.0182	-0.0073	-0.0462	0.0165	0.9585
52.7829	-34.1903	771.2003	78.8319	-275.5173	-103.4229	905.7121	-1.6079	6.1978	-0.5023	2.1909	1.1578	6.6265	-0.0592	0.0182	-0.0073	-0.0462	0.0165	0.9585
52.7939	-26.8846	765.1498	79.4051	-272.5601	-100.8839	892.439	-1.9933	-1.2688	0.11255	-0.48149	0.67422	-0.38275	-0.0592	0.0182	-0.0073	-0.0462	0.0165	0.9585
52.805	-20.584	757.464	79.2992	-269.0346	-97.9714	877.6442	-1.8862	-4.6278	0.39324	-1.675	0.35112	-3.5545	-0.0592	0.0182	-0.0073	-0.0462	0.0165	0.9585
52.8161	-15.3101	749.2457	78.4254	-265.386	-94.5925	862.637	-1.5488	-5.3133	0.46385	-1.9081	0.15768	-4.2268	-0.0592	0.0182	-0.0073	-0.0462	0.0165	0.9585
52.8271	-10.9916	741.2448	76.8622	-261.9131	-90.8105	848.2902	-1.1093	-4.4723	0.39699	-1.5952	0.070933	-3.4885	-0.0592	0.0182	-0.0073	-0.0462	0.0165	0.9585
52.8382	-7.5069	733.8569	74.9138	-258.7627	-86.9143	835.0234	-0.70635	-2.9215	0.27573	-1.0314	0.055003	-2.0742	-0.0592	0.0182	-0.0073	-0.0462	0.0165	0.9585
52.8493	-4.6902	727.2571	72.9389	-255.988	-83.2347	822.9812	-0.36597	-1.2161	0.13248	-0.41504	0.090158	-0.50615	-0.0592	0.0182	-0.0073	-0.0462	0.0165	0.9585
52.8604	-2.4044	721.5751	71.1406	-253.623	-79.9471	812.2265	-0.12636	0.34452	0.0034569	0.14609	0.14854	0.95076	-0.0592	0.0182	-0.0073	-0.0462	0.0165	0.9585
52.8714	-0.51801	716.9542	69.6411	-251.7114	-77.1364	802.8342	0.044441	1.6063	-0.10576	0.59743	0.2146	2.1366	-0.0592	0.0182	-0.0073	-0.0462	0.0165	0.9585
52.8825	1.0786	713.5869	68.3848	-250.314	-74.7054	794.9353	0.13737	2.5649	-0.1862	0.93443	0.27599	3.0566	-0.0592	0.0182	-0.0073	-0.0462	0.0165	0.9585
52.8936	2.479	711.5561	67.3297	-249.454	-72.563	788.5336	0.19138	3.229	-0.23466	1.1644	0.3156	3.7036	-0.0592	0.0182	-0.0073	-0.0462	0.0165	0.9585
52.9046	3.7425	710.7973	66.421	-249.0984	-70.6134	783.4957	0.19572	3.6787	-0.26491	1.3163	0.34349	4.1717	-0.0592	0.0182	-0.0073	-0.0462	0.0165	0.9585
52.9157	4.9495	711.085	65.642	-249.1589	-68.808	779.508	0.18169	3.9546	-0.27766	1.4098	0.35141	4.4964	-0.0592	0.0182	-0.0073	-0.0462	0.0165	0.9585
52.9268	6.1532	712.1031	65.0089	-249.5159	-67.1401	776.1895	0.14151	4.1241	-0.27973	1.4674	0.34824	4.7544	-0.0592	0.0182	-0.0073	-0.0462	0.0165	0.9585
52.9379	7.4531	713.5169	64.4887	-250.0463	-65.5493	773.1355	0.10033	4.2315	-0.27795	1.5052	0.33915	4.951	-0.0592	0.0182	-0.0073	-0.0462	0.0165	0.9585
52.9489	8.9135	715.0177	64.0869	-250.6318	-64.0158	770.006	0.044214	4.3004	-0.27926	1.5321	0.33814	5.0819	-0.0592	0.0182	-0.0073	-0.0462	0.0165	0.9585
52.96	10.6198	716.3361	63.7777	-251.1679	-62.4837	766.5097	0.0011194	4.3438	-0.28995	1.5534	0.35196	5.1365	-0.0592	0.0182	-0.0073	-0.0462	0.0165	0.9585
52.9711	12.6049	717.2514	63.588	-251.5616	-60.9696	762.4496	-0.053323	4.3371	-0.31218	1.5607	0.38963	5.0918	-0.0592	0.0182	-0.0073	-0.0462	0.0165	0.9585
52.9821	14.8722	717.631	63.5349	-251.7451	-59.4919	757.7087	-0.098144	4.2503	-0.34491	1.5387	0.4471	4.9271	-0.0592	0.0182	-0.0073	-0.0462	0.0165	0.9585
52.9932	17.4093	717.4455	63.6192	-251.6828	-58.0632	752.3063	-0.14367	4.0035	-0.38309	1.4551	0.5219	4.5665	-0.0592	0.0182	-0.0073	-0.0462	0.0165	0.9585
53.0043	20.1865	716.7842	63.8683	-251.3783	-56.7227	746.3902	-0.18098	3.5134	-0.42564	1.2756	0.60751	3.9136	-0.0592	0.0182	-0.0073	-0.0462	0.0165	0.9585
53.0154	23.1943	715.8291	64.2681	-250.8717	-55.4674	740.2116	-0.19433	2.6638	-0.47972	0.95677	0.70133	2.83	-0.0592	0.0182	-0.0073	-0.0462	0.0165	0.9585
53.0264	26.4289	714.8283	64.8679	-250.2226	-54.3485	734.0903	-0.18012	1.339	-0.54025	0.4573	0.78774	1.1668	-0.0592	0.0182	-0.0073	-0.0462	0.0165	0.9585
53.0375	29.8954	713.9902	65.685	-249.4796	-53.3863	728.2873	-0.11036	-0.54266	-0.60146	-0.25271	0.84303	-1.1875	-0.0592	0.0182	-0.0073	-0.0462	0.0165	0.9585
53.0486	33.6056	713.4641	66.7774	-248.6749	-52.6367	722.997	0.018698	-3.0102	-0.6436	-1.1814	0.83306	-4.2657	-0.0592	0.0182	-0.0073	-0.0462	0.0165	0.9585
53.0596	37.5933	713.371	68.1633	-247.8453	-52.1079	718.3299	0.23078	-5.9429	-0.63823	-2.2799	0.71213	-7.9323	-0.0592	0.0182	-0.0073	-0.0462	0.0165	0.9585
53.0707	41.8706	713.8087	69.8312	-247.0319	-51.7847	714.3621	0.51999	-8.9926	-0.54756	-3.4126	0.43087	-11.7591	-0.0592	0.0182	-0.0073	-0.0462	0.0165	0.9585
53.0818	46.4581	714.8473	71.7537	-246.278	-51.6329	711.1172	0.90114	-11.4849	-0.30937	-4.3184	-0.085654	-14.9234	-0.0592	0.0182	-0.0073	-0.0462	0.0165	0.9585
53.0929	51.315	716.4853	73.8439	-245.6114	-51.574	708.5596	1.3424	-12.2839	0.13506	-4.565	-0.89346	-15.9809	-0.0592	0.0182	-0.0073	-0.0462	0.0165	0.9585
53.1039	56.3609	718.6062	76.0314	-245.0243	-51.5558	706.5577	1.8087	-9.7381	0.86037	-3.5243	-2.0523	-12.82	-0.0592	0.0182	-0.0073	-0.0462	0.0165	0.9585
53.115	61.4608	720.9231	78.1862	-244.4569	-51.4903	704.8429	2.1734	-1.616	1.9001	-0.35697	-3.5453	-2.5851	-0.0592	0.0182	-0.0073	-0.0462	0.0165	0.9585
53.1261	66.4804	722.9363	80.1893	-243.7793	-51.3015	702.9279	2.2723	14.7485	3.2505	5.9361	-5.2816	18.1253	-0.0592	0.0182	-0.0073	-0.0462	0.0165	0.9585
53.1371	71.3003	723.8838	81.8521	-242.7774	-50.8504	700.0864	1.8213	42.1679	4.8248	16.3954	-7.0201	52.9323	-0.0592	0.0182	-0.0073	-0.0462	0.0165	0.9585
53.1482	75.7907	722.6501	82.938	-241.1303	-49.9624	695.2659	0.48924	82.9777	6.3911	31.8665	-8.3106	104.8437	-0.0592	0.0182	-0.0073	-0.0462	0.0165	0.9585
53.1593	79.819	717.7627	83.1409	-238.4028	-48.4119	687.1018	-2.1819	138.0398	7.5225	52.6233	-8.4148	175.0171	-0.0592	0.0182	-0.0073	-0.0462	0.0165	0.9585
53.1704	83.1812	707.3714	82.1242	-234.035	-45.969	673.9117	-6.9864	205.5858	7.5712	77.9257	-6.1931	261.2388	-0.0592	0.0182	-0.0073	-0.0462	0.0165	0.9585
53.1814	85.5834	689.4216	79.6023	-227.3873	-42.4927	653.8494	-15.1901	280.0103	5.6494	105.5755	-0.069547	356.4373	-0.0592	0.0182	-0.0073	-0.0462	0.0165	0.9585
53.1925	86.6387	661.9268	75.392	-217.8257	-37.9823	625.1627	-26.9238	352.4963	0.6044	132.231	11.2299	449.3615	-0.0592	0.0182	-0.0073	-0.0462	0.0165	0.9585
